<?xml version="1.0" encoding="UTF-8" standalone="no"?>
<!-- Created with Inkscape (http://www.inkscape.org/) -->

<svg
   width="256"
   height="256"
   viewBox="0 0 256 256"
   version="1.1"
   xmlns="http://www.w3.org/2000/svg"
   xmlns:svg="http://www.w3.org/2000/svg">
  <g
     id="layer1">
    <path
       d="M 128 7.9082031 L 41.714844 57.724609 L 41.714844 157.35742 L 128 207.17188 C 156.76057 190.56448 185.52329 173.96255 214.28516 157.35742 L 214.28516 57.724609 L 128 7.9082031 z M 158.37695 66.177734 L 158.37695 66.179688 C 165.37287 66.179688 171.9109 67.895312 177.6582 71.3125 C 183.42521 74.710411 187.93336 79.623767 190.91797 85.726562 C 193.91117 91.752976 195.375 98.538389 195.375 105.875 C 195.375 111.93534 194.45184 117.53892 192.5293 122.60742 L 192.52539 122.61133 L 192.52539 122.61523 C 191.30317 125.81523 189.52717 128.68894 187.50195 131.39062 C 189.65025 132.62379 191.96321 134.1492 193.78906 134.83789 L 198.12891 136.47656 L 192.0293 150.91992 L 188.05078 149.48242 C 183.38728 147.80003 178.8343 145.15757 174.35156 141.91016 C 169.33243 144.2078 163.95275 145.61328 158.19336 145.61328 C 151.30973 145.61328 144.84769 143.91044 139.13867 140.52734 C 133.40674 137.13064 128.8897 132.23292 125.81445 126.15234 L 125.81055 126.14453 L 125.80078 126.13477 C 122.7717 120.07659 121.28711 113.26444 121.28711 105.91602 C 121.28711 98.589005 122.79388 91.743205 125.83984 85.582031 C 128.91183 79.368265 133.45715 74.413689 139.24023 71.09375 L 139.24414 71.09375 L 139.24805 71.087891 C 144.98438 67.815026 151.4607 66.177734 158.37695 66.177734 z M 89.033203 66.226562 C 94.560798 66.226562 99.617563 67.131705 104.10547 69.046875 C 108.66208 70.947431 112.44587 73.934323 115.02539 77.861328 C 117.54734 81.700728 118.91658 86.150632 119.09961 90.873047 L 119.26562 95.173828 L 102.02344 96.470703 L 101.56055 92.175781 C 101.1858 88.703085 100.12551 86.77208 98.4375 85.394531 L 98.423828 85.386719 L 98.416016 85.376953 C 96.857807 84.090534 94.016012 83.097656 89.404297 83.097656 C 84.500132 83.097656 81.533415 84.10996 80.253906 85.136719 L 80.25 85.136719 L 80.244141 85.142578 C 78.570842 86.481197 78.201172 87.351113 78.201172 88.863281 C 78.201172 90.23802 78.452245 90.761226 79.365234 91.578125 L 79.376953 91.591797 L 79.394531 91.605469 C 79.402351 91.612589 83.865831 93.808336 90.933594 95.427734 L 90.955078 95.433594 C 98.400941 97.099362 103.49179 98.488032 106.91211 100.04297 L 106.92578 100.04688 L 106.93359 100.05273 C 111.44285 102.13123 115.10334 104.94069 117.54883 108.58398 C 119.94341 112.12066 121.14844 116.32432 121.14844 120.74609 C 121.14844 125.22312 119.81477 129.5707 117.32617 133.43359 L 117.31836 133.44336 L 117.31445 133.45117 C 114.75004 137.39347 111.01139 140.46366 106.46875 142.55469 L 106.46484 142.55859 L 106.45508 142.55859 C 101.94023 144.61737 96.900808 145.61328 91.496094 145.61328 C 84.89648 145.61328 79.124573 144.66572 74.210938 142.55469 L 74.207031 142.55078 L 74.201172 142.55078 C 69.339887 140.44662 65.305166 137.13644 62.449219 132.83398 L 62.4375 132.81445 L 62.423828 132.79688 C 59.623391 128.48569 58.132241 123.50759 57.988281 118.2168 L 57.871094 114.01758 L 74.876953 112.53125 L 75.382812 116.82812 C 75.722912 119.70589 76.481267 121.7878 77.447266 123.25977 C 78.361365 124.58326 79.884531 125.85399 82.392578 126.96289 C 84.869655 128.02675 87.719818 128.60156 91.078125 128.60156 C 94.075362 128.60156 96.549358 128.15255 98.572266 127.36719 C 100.6237 126.57075 101.76468 125.65118 102.41992 124.74023 L 102.42383 124.73242 L 102.42773 124.72852 C 103.2433 123.60223 103.53516 122.67862 103.53516 121.49023 C 103.53516 120.21446 103.25944 119.47743 102.62305 118.66602 L 102.61133 118.64844 L 102.59766 118.63086 C 102.07123 117.94651 100.77923 116.93885 98.414062 116.03906 L 98.396484 116.0293 L 98.378906 116.02539 C 97.177607 115.55709 93.036084 114.38299 86.837891 112.91016 L 86.828125 112.90625 L 86.820312 112.90234 C 80.4052 111.34619 75.8734 109.9533 72.626953 108.23047 C 72.625953 108.22997 72.623947 108.23093 72.623047 108.23047 C 68.850801 106.25046 65.76055 103.64459 63.664062 100.37891 L 63.646484 100.35352 L 63.628906 100.32617 C 61.614748 97.087707 60.587891 93.343447 60.587891 89.462891 C 60.587891 85.187785 61.860521 81.04499 64.236328 77.416016 C 64.238328 77.413716 64.239234 77.411856 64.240234 77.410156 C 66.712282 73.6065 70.388373 70.721675 74.824219 68.888672 C 79.166894 67.094198 83.944878 66.226562 89.033203 66.226562 z M 158.42383 82.867188 C 152.72119 82.867187 148.56233 84.616556 144.91211 88.419922 L 144.9082 88.423828 L 144.90039 88.427734 C 141.49883 91.948261 139.50977 97.498189 139.50977 105.91797 C 139.50977 114.04361 141.44925 119.57296 144.87695 123.29492 L 144.88086 123.29883 C 147.38655 125.99399 150.3887 127.34781 153.77148 128.12695 L 156.56445 119.75195 L 157.90625 115.72266 L 161.99805 116.86719 C 166.09784 118.01414 169.62152 119.76716 172.84375 121.82227 C 175.60948 118.09022 177.15625 113.02145 177.15625 105.875 C 177.15625 100.86928 176.30029 96.71283 174.72461 93.277344 L 174.7207 93.263672 L 174.7168 93.25 C 173.17889 89.840963 171.07681 87.427974 168.19336 85.628906 L 168.17578 85.617188 L 168.1543 85.603516 C 165.27062 83.763937 162.15769 82.867188 158.42383 82.867188 z M 136.51367 213.5918 C 131.54146 213.5918 127.66644 214.98763 124.88867 217.7793 C 122.12478 220.55707 120.74219 224.46052 120.74219 229.48828 C 120.74219 234.66884 122.32552 238.69163 125.49219 241.55273 C 128.17273 243.96939 131.83183 245.17578 136.4707 245.17578 C 139.6096 245.17578 142.22135 244.72503 144.30469 243.82227 C 144.81858 244.26671 145.722 244.92774 147.01367 245.80273 C 148.30533 246.69162 149.61024 247.45292 150.92969 248.0918 L 153.55469 242.80078 C 152.63802 242.39801 151.90885 242.04384 151.36719 241.73828 C 151.00608 241.52995 150.23525 241.01476 149.05469 240.19531 C 151.27691 237.48699 152.38867 233.87911 152.38867 229.36523 C 152.38867 224.29579 151.00607 220.39995 148.24219 217.67773 C 145.49219 214.95551 141.58311 213.5918 136.51367 213.5918 z M 20.671875 213.63281 C 18.616321 213.63281 16.74696 213.97938 15.066406 214.67383 C 13.385853 215.36827 12.109374 216.38911 11.234375 217.73633 C 10.359376 219.06966 9.921875 220.50717 9.921875 222.04883 C 9.921875 223.45161 10.276043 224.72244 10.984375 225.86133 C 11.706596 226.98632 12.795575 227.93143 14.253906 228.69531 C 15.378905 229.29254 17.344839 229.93078 20.150391 230.61133 C 22.955944 231.27799 24.768448 231.77039 25.587891 232.08984 C 26.865667 232.57596 27.782336 233.18012 28.337891 233.90234 C 28.893446 234.61068 29.171875 235.44401 29.171875 236.40234 C 29.171875 237.34679 28.880207 238.22178 28.296875 239.02734 C 27.727431 239.819 26.852429 240.44401 25.671875 240.90234 C 24.49132 241.36068 23.129556 241.58984 21.587891 241.58984 C 19.851782 241.58984 18.289278 241.29254 16.900391 240.69531 C 15.511504 240.0842 14.483073 239.29254 13.816406 238.32031 C 13.163629 237.3342 12.746962 236.0766 12.566406 234.54883 L 8.7539062 234.88281 C 8.8094622 236.92448 9.366321 238.75781 10.421875 240.38281 C 11.491318 241.99393 12.955297 243.20225 14.816406 244.00781 C 16.691404 244.81336 19.011506 245.21484 21.775391 245.21484 C 23.955944 245.21484 25.914282 244.81901 27.650391 244.02734 C 29.400389 243.22179 30.741322 242.10439 31.671875 240.67383 C 32.60243 239.22938 33.066406 237.69531 33.066406 236.07031 C 33.066406 234.43142 32.644096 232.98633 31.796875 231.73633 C 30.949654 230.47245 29.63715 229.43078 27.859375 228.61133 C 26.637154 228.05578 24.379553 227.40994 21.087891 226.67383 C 17.810118 225.92383 15.781683 225.19467 15.003906 224.48633 C 14.212241 223.778 13.816406 222.87457 13.816406 221.77734 C 13.816406 220.51347 14.373265 219.43772 15.484375 218.54883 C 16.609373 217.64605 18.393449 217.19531 20.837891 217.19531 C 23.18511 217.19531 24.955948 217.68773 26.150391 218.67383 C 27.358722 219.65995 28.067058 221.11828 28.275391 223.04883 L 32.150391 222.75781 C 32.080951 220.96615 31.580945 219.36198 30.650391 217.94531 C 29.719838 216.52864 28.3865 215.45856 26.650391 214.73633 C 24.928171 214.00023 22.935761 213.63281 20.671875 213.63281 z M 216.49414 214.11328 L 207.99414 218.4668 L 207.99414 222.5293 L 204.86914 222.5293 L 204.86914 228.7168 L 207.99414 228.7168 L 207.99414 236.50781 C 207.99414 238.98003 208.23091 240.7717 208.70312 241.88281 C 209.18924 242.98004 209.93164 243.80013 210.93164 244.3418 C 211.93165 244.88346 213.4885 245.1543 215.59961 245.1543 C 217.41905 245.1543 219.37739 244.92513 221.47461 244.4668 L 220.84961 238.61328 C 219.72461 238.97438 218.84961 239.1543 218.22461 239.1543 C 217.53016 239.1543 217.04339 238.91753 216.76562 238.44531 C 216.58507 238.13975 216.49414 237.51475 216.49414 236.57031 L 216.49414 228.7168 L 221.16211 228.7168 L 221.16211 222.5293 L 216.49414 222.5293 L 216.49414 214.11328 z M 38.109375 214.1543 L 38.109375 244.69727 L 41.859375 244.69727 L 41.859375 232.5918 C 41.859375 230.85568 42.067708 229.49588 42.484375 228.50977 C 42.901041 227.52367 43.594185 226.74523 44.566406 226.17578 C 45.552516 225.59245 46.601781 225.30078 47.712891 225.30078 C 49.198999 225.30078 50.344835 225.73069 51.150391 226.5918 C 51.969834 227.43902 52.378906 228.80078 52.378906 230.67578 L 52.378906 244.69727 L 56.128906 244.69727 L 56.128906 230.67578 C 56.128906 228.50912 55.865667 226.85568 55.337891 225.7168 C 54.824001 224.57791 53.962238 223.68967 52.753906 223.05078 C 51.545574 222.39801 50.123261 222.07227 48.484375 222.07227 C 45.817712 222.07227 43.609373 223.0855 41.859375 225.11328 L 41.859375 214.1543 L 38.109375 214.1543 z M 136.49219 220.74023 C 138.50608 220.74023 140.08182 221.39931 141.2207 222.71875 C 142.37348 224.0382 142.95117 226.23893 142.95117 229.32227 C 142.95117 232.00281 142.57618 234.01803 141.82617 235.36523 C 141.45117 235.12913 141.10265 234.89995 140.7832 234.67773 C 139.43598 233.73329 138.52691 233.14996 138.05469 232.92773 C 137.59636 232.70551 136.95052 232.51801 136.11719 232.36523 L 134.63867 235.75977 C 136.347 236.44032 137.59701 237.16386 138.38867 237.92773 C 137.81923 238.05274 137.21507 238.11523 136.57617 238.11523 C 134.59006 238.11523 133.02756 237.44097 131.88867 236.09375 C 130.74979 234.74653 130.17969 232.4056 130.17969 229.07227 C 130.17969 226.21116 130.76302 224.10698 131.92969 222.75977 C 133.09636 221.41254 134.61719 220.74023 136.49219 220.74023 z M 191.93164 222.03125 C 188.05664 222.03125 184.9809 223.12782 182.70312 225.32227 C 180.42535 227.50281 179.28516 230.28125 179.28516 233.65625 C 179.28516 237.28125 180.63369 240.21115 183.32812 242.44727 C 185.52257 244.25281 188.39757 245.15625 191.95312 245.15625 C 195.93922 245.15625 199.05664 244.07292 201.30664 241.90625 C 203.57053 239.7257 204.70312 236.93403 204.70312 233.53125 C 204.70312 230.50347 203.79209 227.9542 201.97266 225.88477 C 199.70876 223.31532 196.36219 222.03125 191.93164 222.03125 z M 234.12109 222.03125 C 230.21833 222.03125 227.15581 223.10135 224.93359 225.24023 C 222.72527 227.37912 221.62109 230.17643 221.62109 233.63477 C 221.62109 236.06531 222.16842 238.18468 223.26562 239.99023 C 224.37674 241.78189 225.77258 243.09441 227.45312 243.92773 C 229.13368 244.74717 231.44054 245.15625 234.37109 245.15625 C 237.74609 245.15625 240.33507 244.67708 242.14062 243.71875 C 243.94617 242.74653 245.48786 241.14995 246.76562 238.92773 L 238.41211 238.15625 C 237.88433 238.82292 237.39192 239.28883 236.93359 239.55273 C 236.18358 239.96939 235.39193 240.17773 234.55859 240.17773 C 233.23917 240.17773 232.16905 239.69856 231.34961 238.74023 C 230.76628 238.07357 230.39887 237.05836 230.24609 235.69727 L 247.24609 235.69727 L 247.24609 234.74023 C 247.24609 231.82357 246.76693 229.4542 245.80859 227.63477 C 244.85026 225.81532 243.45442 224.42709 241.62109 223.46875 C 239.78776 222.51042 237.28776 222.03125 234.12109 222.03125 z M 71.191406 222.07227 C 69.288631 222.07227 67.616318 222.3355 66.171875 222.86328 C 64.727432 223.37716 63.623262 224.11762 62.859375 225.08984 C 62.095486 226.04817 61.546223 227.31533 61.212891 228.88477 L 64.878906 229.38477 C 65.281684 227.81533 65.901044 226.72245 66.734375 226.11133 C 67.581597 225.48634 68.886504 225.17578 70.650391 225.17578 C 72.539278 225.17578 73.963543 225.60005 74.921875 226.44727 C 75.630207 227.07226 75.984375 228.148 75.984375 229.67578 C 75.984375 229.81467 75.976771 230.13845 75.962891 230.65234 C 74.532337 231.15234 72.303165 231.58616 69.275391 231.94727 C 67.789282 232.12783 66.677517 232.31532 65.941406 232.50977 C 64.941407 232.78754 64.039929 233.1966 63.234375 233.73828 C 62.44271 234.27994 61.796874 234.99957 61.296875 235.90234 C 60.810764 236.79124 60.566406 237.77994 60.566406 238.86328 C 60.566406 240.7105 61.219837 242.23133 62.525391 243.42578 C 63.830945 244.60634 65.698354 245.19727 68.128906 245.19727 C 69.601127 245.19727 70.976131 244.95096 72.253906 244.46484 C 73.545571 243.97873 74.886504 243.14539 76.275391 241.96484 C 76.386503 243.0065 76.636502 243.91949 77.025391 244.69727 L 80.941406 244.69727 C 80.469181 243.85004 80.151042 242.96745 79.984375 242.05078 C 79.831601 241.12022 79.753906 238.90994 79.753906 235.42383 L 79.753906 230.42383 C 79.753906 228.75717 79.691406 227.60373 79.566406 226.96484 C 79.34418 225.93706 78.955944 225.09244 78.400391 224.42578 C 77.844832 223.74522 76.977426 223.18272 75.796875 222.73828 C 74.616321 222.29383 73.080293 222.07227 71.191406 222.07227 z M 93.691406 222.07227 C 92.816408 222.07227 92.011502 222.32227 91.275391 222.82227 C 90.553171 223.32227 89.761503 224.35633 88.900391 225.92578 L 88.900391 222.57227 L 85.525391 222.57227 L 85.525391 244.69727 L 89.275391 244.69727 L 89.275391 233.11328 C 89.275391 231.52994 89.483725 230.07161 89.900391 228.73828 C 90.17817 227.86328 90.644104 227.18338 91.296875 226.69727 C 91.949653 226.19727 92.684461 225.94727 93.503906 225.94727 C 94.420571 225.94727 95.337242 226.2181 96.253906 226.75977 L 97.546875 223.2793 C 96.241317 222.47375 94.955291 222.07227 93.691406 222.07227 z M 108.85938 222.07227 C 105.80382 222.07227 103.31705 223.09679 101.40039 225.15234 C 99.483731 227.20789 98.525391 230.10005 98.525391 233.82227 C 98.525391 237.41948 99.470489 240.21485 101.35938 242.21484 C 103.26215 244.20095 105.83029 245.19727 109.06641 245.19727 C 111.63584 245.19727 113.74761 244.57226 115.40039 243.32227 C 117.05317 242.07227 118.18577 240.31466 118.79688 238.05078 L 114.92188 237.57227 C 114.35243 239.15559 113.58158 240.30512 112.60938 241.02734 C 111.63716 241.74956 110.4629 242.11133 109.08789 242.11133 C 107.24067 242.11133 105.69901 241.4655 104.46289 240.17383 C 103.22678 238.88217 102.53928 237.0204 102.40039 234.58984 L 118.90039 234.58984 C 118.91429 234.1454 118.92188 233.81207 118.92188 233.58984 C 118.92188 229.93707 117.98437 227.10373 116.10938 225.08984 C 114.23438 223.07596 111.8177 222.07227 108.85938 222.07227 z M 154.30469 222.53125 L 154.30469 236.61523 C 154.30469 239.51801 154.96571 241.66949 156.28516 243.07227 C 157.61848 244.46115 159.45182 245.1543 161.78516 245.1543 C 163.53515 245.1543 165.00673 244.84181 166.20117 244.2168 C 167.40951 243.59181 168.6046 242.54449 169.78516 241.07227 L 169.78516 244.6543 L 177.70117 244.6543 L 177.70117 222.53125 L 169.22266 222.53125 L 169.22266 233.17773 C 169.22266 235.19162 168.89497 236.58746 168.24219 237.36523 C 167.6033 238.14301 166.77756 238.53125 165.76367 238.53125 C 164.83312 238.53125 164.11154 238.23957 163.59766 237.65625 C 163.08377 237.07291 162.82617 236.08614 162.82617 234.69727 L 162.82617 222.53125 L 154.30469 222.53125 z M 108.90039 225.15234 C 110.80317 225.15234 112.35243 225.87783 113.54688 227.32227 C 114.32464 228.25282 114.79623 229.64866 114.96289 231.50977 L 102.60938 231.50977 C 102.73437 229.57921 103.38021 228.03754 104.54688 226.88477 C 105.72743 225.732 107.17817 225.15234 108.90039 225.15234 z M 234.47461 227.05273 C 235.64128 227.05273 236.57878 227.40691 237.28711 228.11523 C 238.00934 228.82356 238.45443 229.99589 238.62109 231.63477 L 230.26562 231.63477 C 230.40451 230.31533 230.73221 229.32097 231.24609 228.6543 C 232.05165 227.58487 233.12739 227.05273 234.47461 227.05273 z M 192.05664 227.86523 C 193.22331 227.86523 194.20248 228.3368 194.99414 229.28125 C 195.78581 230.21179 196.18164 231.63607 196.18164 233.55273 C 196.18164 235.60829 195.78581 237.10069 194.99414 238.03125 C 194.21637 238.9618 193.21636 239.42773 191.99414 239.42773 C 190.78581 239.42773 189.77821 238.95421 188.97266 238.00977 C 188.18099 237.06533 187.78516 235.60698 187.78516 233.63477 C 187.78516 231.69034 188.18857 230.24717 188.99414 229.30273 C 189.79969 228.34441 190.82053 227.86523 192.05664 227.86523 z M 75.962891 233.58984 L 75.962891 234.96484 C 75.962891 236.61762 75.762153 237.86762 75.359375 238.71484 C 74.831598 239.81206 74.003905 240.68339 72.878906 241.32227 C 71.753908 241.94726 70.469833 242.25977 69.025391 242.25977 C 67.567059 242.25977 66.455293 241.92643 65.691406 241.25977 C 64.941407 240.59311 64.566406 239.75976 64.566406 238.75977 C 64.566406 238.10699 64.740669 237.51605 65.087891 236.98828 C 65.435113 236.44661 65.927519 236.03755 66.566406 235.75977 C 67.205295 235.48199 68.296225 235.23199 69.837891 235.00977 C 72.56011 234.62088 74.601782 234.1454 75.962891 233.58984 z " />
  </g>
</svg>
