<?xml version="1.0" encoding="UTF-8" standalone="no"?>
<svg
   width="256"
   height="256"
   viewBox="0 0 256 256"
   version="1.1"
   xmlns="http://www.w3.org/2000/svg"
   xmlns:svg="http://www.w3.org/2000/svg">

  <g
   
  
     id="layer1">     
    <path
      fill="currentColor"
       d="M 128,2.1652898 19.022105,65.083259 V 190.9192 L 128,253.83471 c 36.32451,-20.97509 72.65174,-41.94328 108.9779,-62.91551 V 65.083259 Z M 166.366,75.75953 v 0.0025 c 8.83582,0 17.09333,2.166828 24.35216,6.482726 7.28371,4.291551 12.97749,10.497104 16.74705,18.204914 3.7804,7.61134 5.62921,16.18129 5.62921,25.44742 0,7.65419 -1.16595,14.7315 -3.59411,21.133 l -0.005,0.005 v 0.005 c -1.54366,4.04159 -3.78674,7.67108 -6.34459,11.08329 2.7133,1.55749 5.63456,3.48408 7.9406,4.35389 l 5.48122,2.06964 -7.70379,18.24192 -5.02486,-1.81556 c -5.88999,-2.12485 -11.64039,-5.46227 -17.30207,-9.56374 -6.33915,2.90191 -13.13367,4.67703 -20.40776,4.67703 -8.69401,0 -16.85554,-2.15068 -24.06602,-6.42353 -7.23941,-4.29002 -12.94442,-10.47582 -16.82845,-18.15558 l -0.005,-0.0101 -0.0126,-0.0126 c -3.82572,-7.65147 -5.70075,-16.25519 -5.70075,-25.53622 0,-9.25401 1.90305,-17.90023 5.75008,-25.68177 3.87992,-7.84797 9.62064,-14.105585 16.92466,-18.298658 h 0.005 l 0.005,-0.0075 c 7.24497,-4.133619 15.42454,-6.201514 24.15974,-6.201514 z M 78.785049,75.8212 c 6.981336,0 13.368015,1.143193 19.036232,3.562047 5.754989,2.400396 10.533899,6.172832 13.791829,11.132627 3.18521,4.849153 4.91456,10.469366 5.14572,16.433766 l 0.20967,5.43187 -21.776817,1.63795 -0.584628,-5.42447 c -0.473309,-4.386 -1.812452,-6.82486 -3.944407,-8.5647 l -0.01727,-0.0101 -0.0099,-0.0126 c -1.968013,-1.624743 -5.557191,-2.878747 -11.381773,-2.878747 -6.193946,0 -9.9409,1.278544 -11.556916,2.575339 h -0.0049 l -0.0075,0.0076 c -2.113371,1.690668 -2.580264,2.789368 -2.580264,4.699228 0,1.7363 0.317105,2.39711 1.470207,3.42884 l 0.0148,0.0173 0.0222,0.0173 c 0.0099,0.009 5.647238,2.78221 14.573802,4.82751 l 0.02713,0.008 c 9.404102,2.10386 15.833836,3.85775 20.153686,5.82163 l 0.0173,0.005 0.0101,0.008 c 5.69518,2.62514 10.31837,6.17348 13.40702,10.77494 3.02434,4.46682 4.54629,9.77603 4.54629,15.36071 0,5.65448 -1.68442,11.14546 -4.82751,16.02428 l -0.0101,0.0126 -0.005,0.0101 c -3.23884,4.97911 -7.96074,8.85675 -13.69808,11.49772 l -0.005,0.005 h -0.0126 c -5.702239,2.60023 -12.06702,3.85807 -18.893157,3.85807 -8.335293,0 -15.625194,-1.19677 -21.8311,-3.86299 l -0.0049,-0.005 h -0.0075 c -6.139788,-2.65754 -11.235629,-6.83829 -14.842681,-12.27229 l -0.0148,-0.0246 -0.01727,-0.0222 c -3.536943,-5.44502 -5.420261,-11.73235 -5.602082,-18.4146 l -0.148007,-5.3036 21.478348,-1.87723 0.638899,5.42693 c 0.429545,3.63462 1.387345,6.26406 2.607399,8.12316 1.154504,1.67156 3.078258,3.27649 6.245914,4.67703 3.128541,1.34365 6.728288,2.06963 10.96982,2.06963 3.785501,0 6.91015,-0.5671 9.465077,-1.559 2.590952,-1.00591 4.032007,-2.16732 4.859573,-3.31785 l 0.0051,-0.0101 0.0051,-0.005 c 1.030062,-1.4225 1.398681,-2.58902 1.398681,-4.08995 0,-1.6113 -0.348234,-2.54216 -1.151993,-3.56697 l -0.01478,-0.0222 -0.0173,-0.0222 c -0.664879,-0.86433 -2.296671,-2.137 -5.283869,-3.27344 l -0.0222,-0.0126 -0.0222,-0.005 c -1.517237,-0.59146 -6.747968,-2.07434 -14.576267,-3.93452 l -0.01238,-0.005 -0.0099,-0.005 C 67.88802,132.80815 62.16437,131.04893 58.064118,128.873 c -0.0013,-6.3e-4 -0.0038,5.8e-4 -0.0049,0 -4.764335,-2.50074 -8.667313,-5.79195 -11.315171,-9.91649 l -0.0222,-0.0321 -0.0222,-0.0345 c -2.543876,-4.09017 -3.840793,-8.81916 -3.840793,-13.72029 0,-5.399453 1.607328,-10.631785 4.607965,-15.21517 0.0025,-0.0029 0.0037,-0.0053 0.0049,-0.0075 3.122189,-4.804006 7.765081,-8.447531 13.367541,-10.762608 5.484785,-2.266416 11.519365,-3.362237 17.945904,-3.362237 z m 87.640161,21.017063 c -7.20242,0 -12.45505,2.209449 -17.06527,7.013087 l -0.005,0.005 -0.0101,0.005 c -4.29616,4.44642 -6.80834,11.45596 -6.80834,22.09012 0,10.26266 2.44956,17.24621 6.77873,21.94704 l 0.005,0.005 c 3.16468,3.40398 6.95639,5.11385 11.22883,6.0979 l 3.52751,-10.5776 1.69469,-5.08898 5.16793,1.44554 c 5.17803,1.44859 9.62842,3.66265 13.69809,6.25825 3.49311,-4.71357 5.44667,-11.11541 5.44667,-20.14136 0,-6.32221 -1.08107,-11.57179 -3.07115,-15.9108 l -0.005,-0.0173 -0.005,-0.0173 c -1.94238,-4.30559 -4.5973,-7.35319 -8.23909,-9.62541 l -0.0222,-0.0148 -0.0272,-0.0173 c -3.64208,-2.323389 -7.5737,-3.455982 -12.28956,-3.455982 z"
    />
  </g>
</svg>
