<?xml version="1.0" encoding="UTF-8" standalone="no"?>
<!-- Created with Inkscape (http://www.inkscape.org/) -->

<svg
   width="256"
   height="256"
   viewBox="0 0 256 256"
   version="1.1"
   xmlns="http://www.w3.org/2000/svg"
   xmlns:svg="http://www.w3.org/2000/svg">
  <g
     id="layer1">
    <path
       id="path1"
       style="color:#000000;fill:#1a1a1a;stroke-linecap:round;-inkscape-stroke:none"
       d="M 134.43175 -4.0886994 L 25.714218 58.678953 L 25.714218 184.21426 L 134.43175 246.98191 L 136.65394 245.69732 L 243.14928 184.21426 L 243.14928 58.678953 L 134.43175 -4.0886994 z M 134.43175 6.1806259 L 234.25313 63.814846 L 234.25313 179.08082 L 134.43175 236.71258 L 34.610362 179.08082 L 34.610362 63.814846 L 134.43175 6.1806259 z M 173.55017 68.798163 C 164.83582 68.798163 156.67582 70.861112 149.44814 74.984859 L 149.44322 74.992242 L 149.4383 74.992242 C 142.15173 79.175302 136.42472 85.417956 132.55408 93.24718 C 128.71621 101.01015 126.81773 109.63569 126.81773 118.86758 C 126.81773 128.12645 128.68829 136.70961 132.50487 144.34279 L 132.51717 144.3551 L 132.52209 144.36494 C 136.39684 152.02635 142.0882 158.19737 149.31033 162.47715 C 156.50358 166.73979 164.6456 168.88533 173.31885 168.88533 C 180.57557 168.88533 187.35385 167.11445 193.67786 164.21946 C 199.32602 168.31114 205.06266 171.64058 210.93859 173.76036 L 215.95144 175.57158 L 223.63682 157.37325 L 218.16871 155.30855 C 215.86818 154.44081 212.9539 152.51884 210.24708 150.96507 C 212.79882 147.56099 215.03654 143.94019 216.57651 139.90826 L 216.57651 139.90334 L 216.58143 139.89841 C 219.00381 133.51218 220.16696 126.45183 220.16696 118.81591 C 220.16696 109.57192 218.32256 101.02245 214.55119 93.429286 C 210.79064 85.739881 205.11046 79.549165 197.84415 75.267863 C 190.60266 70.962272 182.36489 68.800624 173.55017 68.800624 L 173.55017 68.798163 z M 86.178469 68.859686 C 79.767273 68.859686 73.747124 69.952886 68.27544 72.213889 C 62.686354 74.523438 58.054578 78.158251 54.939836 82.950785 C 54.93845 82.952927 54.936679 82.955269 54.934915 82.958167 C 51.941449 87.530602 50.337958 92.750435 50.337958 98.136983 C 50.337958 103.02641 51.631769 107.74409 54.169575 111.8245 L 54.191724 111.85895 L 54.213872 111.89094 C 56.855402 116.00564 60.749058 119.28898 65.502008 121.78375 C 65.503144 121.78434 65.505418 121.78313 65.50693 121.78375 C 69.597393 123.95449 75.307356 125.70949 83.390272 127.67021 L 83.400116 127.67514 L 83.412421 127.68006 C 91.22203 129.5358 96.440245 131.01514 97.953864 131.60519 L 97.976012 131.61011 L 97.99816 131.62242 C 100.97822 132.75614 102.60611 134.02576 103.2694 134.88803 L 103.28663 134.91017 L 103.30139 134.93232 C 104.10324 135.95469 104.45063 136.88333 104.45063 138.49078 C 104.45063 139.98813 104.0829 141.15185 103.0553 142.57095 L 103.05038 142.57587 L 103.04546 142.58571 C 102.21987 143.73349 100.78225 144.89212 98.197493 145.89562 C 95.64866 146.88516 92.531479 147.45091 88.755029 147.45091 C 84.523621 147.45091 80.932491 146.72666 77.811418 145.38622 C 74.651329 143.98903 72.732171 142.38794 71.580425 140.72035 C 70.363275 138.8657 69.407773 136.24255 68.979257 132.61662 L 68.341884 127.20264 L 46.91485 129.07539 L 47.062503 134.36632 C 47.243895 141.03262 49.122711 147.3049 52.651202 152.73692 L 52.668428 152.75906 L 52.683193 152.78367 C 56.281636 158.20468 61.365284 162.37544 67.490414 165.02664 L 67.497796 165.02664 L 67.502718 165.03156 C 73.693797 167.69141 80.966276 168.88533 89.281661 168.88533 C 96.091496 168.88533 102.44106 167.6305 108.12968 165.03648 L 108.14198 165.03648 L 108.1469 165.03156 C 113.87053 162.3969 118.58115 158.52854 121.81227 153.56132 L 121.81719 153.55147 L 121.82703 153.53917 C 124.96261 148.672 126.64301 143.19414 126.64301 137.55318 C 126.64301 131.98183 125.12469 126.68531 122.10757 122.22917 C 119.02631 117.63869 114.41418 114.09884 108.7326 111.47997 L 108.72275 111.47259 L 108.70553 111.46767 C 104.39636 109.50898 97.981642 107.75879 88.599993 105.65995 L 88.572923 105.65256 C 79.667684 103.6121 74.043791 100.84556 74.03394 100.83659 L 74.011792 100.81936 L 73.997027 100.80214 C 72.846672 99.772872 72.530332 99.113635 72.530332 97.381488 C 72.530332 95.476185 72.996103 94.380115 75.104431 92.693478 L 75.111813 92.686095 L 75.116735 92.686095 C 76.728885 91.392402 80.466881 90.116918 86.64604 90.116918 C 92.456713 90.116918 96.037305 91.367924 98.000621 92.988786 L 98.010465 93.00109 L 98.027691 93.010934 C 100.15455 94.746623 101.49049 97.179643 101.96267 101.55517 L 102.5459 106.96668 L 124.2707 105.33265 L 124.06153 99.913751 C 123.83091 93.963603 122.1057 88.356818 118.92809 83.519252 C 115.67795 78.571301 110.91046 74.807886 105.16922 72.413222 C 99.514546 70.000145 93.143132 68.859686 86.178469 68.859686 z M 173.60924 89.826532 C 178.31384 89.826532 182.23605 90.956409 185.86943 93.27425 L 185.8965 93.291476 L 185.91865 93.306241 C 189.55173 95.573034 192.20031 98.613335 194.13804 102.90866 L 194.14297 102.92589 L 194.14789 102.94312 C 196.13321 107.27176 197.2117 112.50879 197.2117 118.81591 C 197.2117 127.82031 195.2628 134.20683 191.77804 138.90913 C 187.7181 136.31973 183.27834 134.11098 178.11268 132.66584 L 172.9571 131.22375 L 171.26646 136.30058 L 167.74738 146.85291 C 163.48514 145.87121 159.70249 144.16541 156.54537 140.76957 L 156.54045 140.76465 C 152.2216 136.07505 149.7779 129.10819 149.7779 118.87004 C 149.7779 108.26128 152.28408 101.2685 156.56998 96.832708 L 156.57983 96.827786 L 156.58475 96.822864 C 161.18395 92.030695 166.42403 89.826532 173.60924 89.826532 z M 145.1588 255.07088 C 138.8939 255.07088 134.01148 256.8296 130.51154 260.34704 C 127.0291 263.84699 125.28705 268.76523 125.28705 275.10012 C 125.28705 281.62752 127.28202 286.69369 131.27196 290.29863 C 134.6494 293.34357 139.25976 294.86605 145.10466 294.86605 C 149.0596 294.86605 152.35036 294.29567 154.97532 293.15819 C 155.62281 293.71818 156.76111 294.55106 158.38859 295.65354 C 160.01606 296.77353 161.66021 297.73519 163.32268 298.54017 L 166.63013 291.8736 C 165.47515 291.36611 164.55641 290.91986 163.87393 290.53487 C 163.41893 290.27238 162.4477 289.62325 160.96022 288.59076 C 163.76018 285.17832 165.16098 280.63003 165.16098 274.94263 C 165.16098 268.55523 163.41893 263.64656 159.93649 260.21662 C 156.47155 256.78667 151.54619 255.07088 145.1588 255.07088 z M -0.79949229 255.12256 C -3.3894499 255.12256 -5.7448033 255.55923 -7.8622681 256.43422 C -9.979733 257.3092 -11.588067 258.59544 -12.690549 260.2929 C -13.793031 261.97287 -14.344272 263.78409 -14.344272 265.72656 C -14.344272 267.49403 -13.898029 269.09526 -13.005544 270.53024 C -12.095559 271.94771 -10.723471 273.13852 -8.8860015 274.101 C -7.4685243 274.85349 -4.9914932 275.65766 -1.4565519 276.51514 C 2.0783902 277.35512 4.3621043 277.97554 5.3945867 278.37804 C 7.0045601 278.99053 8.159542 279.75177 8.8595304 280.66175 C 9.5595189 281.55424 9.9103337 282.60422 9.9103337 283.8117 C 9.9103337 285.00168 9.5428389 286.10416 8.8078516 287.11915 C 8.0903629 288.11663 6.9878802 288.90412 5.5004053 289.48161 C 4.0129296 290.0591 2.2971368 290.34784 0.35466864 290.34784 C -1.8327947 290.34784 -3.8015142 289.97325 -5.5514854 289.22075 C -7.3014566 288.45077 -8.5972562 287.45329 -9.4372426 286.2283 C -10.259729 284.98582 -10.78472 283.40127 -11.012217 281.47631 L -15.815889 281.89712 C -15.74589 284.46958 -15.04426 286.77954 -13.714282 288.82701 C -12.366805 290.85698 -10.522225 292.37945 -8.177263 293.39444 C -5.8148021 294.40942 -2.8915274 294.91527 0.59091481 294.91527 C 3.3383697 294.91527 5.8058303 294.41653 7.9932945 293.41904 C 10.198258 292.40406 11.887802 290.99616 13.060282 289.19368 C 14.232763 287.37371 14.817363 285.44081 14.817363 283.39335 C 14.817363 281.32838 14.285262 279.50759 13.21778 277.93262 C 12.150298 276.34015 10.496574 275.02767 8.2566106 273.99518 C 6.7166366 273.2952 3.8721107 272.48146 -0.27532112 271.55397 C -4.4052527 270.60899 -6.9610327 269.69025 -7.9410169 268.79776 C -8.9385005 267.90528 -9.4372426 266.76698 -9.4372426 265.3845 C -9.4372426 263.79203 -8.7356131 262.43662 -7.3356361 261.31664 C -5.9181597 260.17916 -3.6702657 259.61123 -0.590316 259.61123 C 2.3671352 259.61123 4.5983501 260.23166 6.1033252 261.47413 C 7.6257998 262.71662 8.5182863 264.55408 8.7807817 266.98654 L 13.663202 266.61987 C 13.575704 264.36241 12.945713 262.34119 11.773233 260.55622 C 10.600753 258.77124 8.9207792 257.42295 6.733315 256.51296 C 4.563351 255.58548 2.0529607 255.12256 -0.79949229 255.12256 z M 245.93255 255.72794 L 235.22273 261.21328 L 235.22273 266.33195 L 231.28529 266.33195 L 231.28529 274.12807 L 235.22273 274.12807 L 235.22273 283.94459 C 235.22273 287.05953 235.52104 289.317 236.11603 290.71698 C 236.72852 292.09946 237.66393 293.13276 238.92392 293.81525 C 240.1839 294.49774 242.14551 294.83898 244.80546 294.83898 C 247.09792 294.83898 249.56538 294.55024 252.20784 293.97275 L 251.42035 286.59744 C 250.00288 287.05242 248.90039 287.27911 248.11291 287.27911 C 247.23792 287.27911 246.62461 286.98079 246.27462 286.3858 C 246.04712 286.0008 245.93255 285.21331 245.93255 284.02334 L 245.93255 274.12807 L 251.8141 274.12807 L 251.8141 266.33195 L 245.93255 266.33195 L 245.93255 255.72794 z M 21.171401 255.77716 L 21.171401 294.26067 L 25.896324 294.26067 L 25.896324 279.00803 C 25.896324 276.82056 26.158819 275.10723 26.683811 273.86475 C 27.208802 272.62228 28.082148 271.64147 29.307128 270.92398 C 30.549608 270.18899 31.871657 269.8215 33.271634 269.8215 C 35.144103 269.8215 36.587829 270.36317 37.602813 271.44815 C 38.635296 272.51563 39.150718 274.23143 39.150718 276.59389 L 39.150718 294.26067 L 43.875641 294.26067 L 43.875641 276.59389 C 43.875641 273.86394 43.543966 271.78064 42.878978 270.34567 C 42.231488 268.91069 41.145685 267.79153 39.62321 266.98654 C 38.100735 266.16406 36.308654 265.75363 34.243688 265.75363 C 30.883744 265.75363 28.101288 267.03029 25.896324 269.58525 L 25.896324 255.77716 L 21.171401 255.77716 z M 145.13173 264.0753 C 147.66919 264.0753 149.65459 264.90572 151.08956 266.56819 C 152.54204 268.23067 153.26992 271.00355 153.26992 274.88849 C 153.26992 278.26593 152.79743 280.80504 151.85244 282.5025 C 151.37995 282.20501 150.94082 281.91627 150.53832 281.63627 C 148.84085 280.44628 147.69544 279.7113 147.10045 279.4313 C 146.52296 279.15131 145.70922 278.91506 144.65924 278.72256 L 142.79634 282.9996 C 144.9488 283.85709 146.52378 284.76872 147.52126 285.7312 C 146.80377 285.8887 146.04254 285.96745 145.23755 285.96745 C 142.73509 285.96745 140.76637 285.11789 139.33139 283.42042 C 137.89642 281.72295 137.17811 278.77343 137.17811 274.57349 C 137.17811 270.96855 137.9131 268.31734 139.38307 266.61987 C 140.85305 264.92239 142.76927 264.0753 145.13173 264.0753 z M 214.98431 265.70196 C 210.10189 265.70196 206.22652 267.08361 203.35657 269.84857 C 200.48661 272.59602 199.04999 276.09678 199.04999 280.34922 C 199.04999 284.91664 200.74911 288.60826 204.14405 291.42572 C 206.90901 293.70068 210.53145 294.83898 215.01138 294.83898 C 220.03379 294.83898 223.96166 293.47401 226.79661 290.74405 C 229.64906 287.9966 231.07611 284.47915 231.07611 280.19172 C 231.07611 276.37678 229.92824 273.16476 227.63578 270.55731 C 224.78332 267.31986 220.56672 265.70196 214.98431 265.70196 z M 268.14215 265.70196 C 263.22474 265.70196 259.36604 267.05025 256.56609 269.74521 C 253.78364 272.44016 252.39241 275.96472 252.39241 280.32215 C 252.39241 283.3846 253.08201 286.05494 254.46448 288.32991 C 255.86446 290.58737 257.62319 292.2411 259.74065 293.29108 C 261.85812 294.32356 264.76471 294.83898 268.45715 294.83898 C 272.70958 294.83898 275.97164 294.23524 278.2466 293.02776 C 280.52156 291.80278 282.46403 289.79113 284.074 286.99118 L 273.54875 286.01913 C 272.88376 286.85911 272.26334 287.44617 271.68585 287.77867 C 270.74086 288.30366 269.74338 288.56615 268.69339 288.56615 C 267.03093 288.56615 265.68262 287.96241 264.65014 286.75493 C 263.91515 285.91494 263.45223 284.63582 263.25973 282.92086 L 284.67938 282.92086 L 284.67938 281.71502 C 284.67938 278.04008 284.07564 275.05473 282.86816 272.76227 C 281.66068 270.46981 279.90196 268.72066 277.592 267.51318 C 275.28204 266.3057 272.13209 265.70196 268.14215 265.70196 z M 62.854083 265.75363 C 60.456622 265.75363 58.349546 266.08531 56.529576 266.7503 C 54.709606 267.39778 53.318378 268.3332 52.355894 269.55818 C 51.393409 270.76566 50.70135 272.35978 50.281357 274.33725 L 54.900462 274.96723 C 55.407954 272.98977 56.188333 271.61522 57.238315 270.84523 C 58.305798 270.05775 59.949951 269.664 62.172414 269.664 C 64.552375 269.664 66.346917 270.19857 67.554397 271.26605 C 68.446882 272.05353 68.893125 273.40894 68.893125 275.33391 C 68.893125 275.50891 68.883552 275.91933 68.866055 276.56682 C 67.063585 277.19681 64.254879 277.74094 60.439942 278.19593 C 58.567473 278.42343 57.166675 278.65967 56.23919 278.90467 C 54.979211 279.25466 53.843369 279.77008 52.828386 280.45258 C 51.830903 281.13506 51.017166 282.04424 50.387176 283.18171 C 49.774686 284.3017 49.4668 285.54499 49.4668 286.90997 C 49.4668 289.23743 50.290107 291.15365 51.93508 292.65863 C 53.580054 294.14611 55.932946 294.89066 58.995395 294.89066 C 60.850365 294.89066 62.582838 294.58278 64.192811 293.97029 C 65.820284 293.35779 67.509828 292.30781 69.259799 290.82034 C 69.399797 292.13281 69.714792 293.28069 70.204784 294.26067 L 75.138883 294.26067 C 74.543888 293.19318 74.14304 292.08114 73.933043 290.92616 C 73.740552 289.75368 73.642657 286.97122 73.642657 282.57879 L 73.642657 276.27889 C 73.642657 274.17893 73.563909 272.72563 73.406411 271.92064 C 73.126411 270.62566 72.637241 269.559 71.937255 268.71902 C 71.237262 267.86153 70.144351 267.15279 68.656879 266.5928 C 67.169404 266.03281 65.234044 265.75363 62.854083 265.75363 z M 91.203622 265.75363 C 90.101141 265.75363 89.086979 266.06863 88.159492 266.69862 C 87.24951 267.32861 86.252025 268.63152 85.16704 270.60899 L 85.16704 266.38362 L 80.91461 266.38362 L 80.91461 294.26067 L 85.639533 294.26067 L 85.639533 279.66509 C 85.639533 277.67012 85.902029 275.83265 86.42702 274.15268 C 86.777017 273.0502 87.364082 272.19353 88.186562 271.58104 C 89.00905 270.95105 89.934891 270.63606 90.967376 270.63606 C 92.122356 270.63606 93.27734 270.9773 94.43232 271.65979 L 96.061434 267.27447 C 94.416457 266.25949 92.796092 265.75363 91.203622 265.75363 z M 110.31495 265.75363 C 106.46501 265.75363 103.33174 267.04697 100.91678 269.63693 C 98.501826 272.22688 97.294343 275.86847 97.294343 280.55839 C 97.294343 285.09082 98.48515 288.61537 100.86511 291.13533 C 103.26257 293.63779 106.49837 294.89066 110.57581 294.89066 C 113.81325 294.89066 116.47403 294.10317 118.5565 292.5282 C 120.63896 290.95322 122.06602 288.73869 122.836 285.88624 L 117.95358 285.28332 C 117.23609 287.27828 116.26485 288.72912 115.03988 289.63911 C 113.8149 290.54909 112.33536 291.0049 110.60288 291.0049 C 108.27542 291.0049 106.33295 290.19117 104.77547 288.56369 C 103.218 286.93622 102.35176 284.59044 102.17676 281.52799 L 122.96643 281.52799 C 122.9839 280.968 122.9935 280.54801 122.9935 280.26801 C 122.9935 275.66558 121.81226 272.09564 119.4498 269.55818 C 117.08734 267.02072 114.04239 265.75363 110.31495 265.75363 z M 167.57512 266.33195 L 167.57512 284.07748 C 167.57512 287.73492 168.40799 290.44573 170.07047 292.2132 C 171.75044 293.96318 174.0604 294.83898 177.00035 294.83898 C 179.20532 294.83898 181.05947 294.44524 182.56444 293.65775 C 184.08692 292.87027 185.59271 291.54822 187.08019 289.69325 L 187.08019 294.20899 L 197.05421 294.20899 L 197.05421 266.33195 L 186.37145 266.33195 L 186.37145 279.7463 C 186.37145 282.28376 185.95857 284.04248 185.13608 285.02246 C 184.33109 286.00245 183.29068 286.49162 182.0132 286.49162 C 180.84072 286.49162 179.93155 286.12412 179.28407 285.38914 C 178.63658 284.65415 178.31201 283.41084 178.31201 281.66088 L 178.31201 266.33195 L 167.57512 266.33195 z M 110.36663 269.63693 C 112.76409 269.63693 114.71613 270.54856 116.22111 272.36853 C 117.20109 273.54101 117.79526 275.29973 118.00526 277.64469 L 102.44008 277.64469 C 102.59758 275.21223 103.41132 273.26976 104.88129 271.81729 C 106.36877 270.36482 108.19667 269.63693 110.36663 269.63693 z M 268.58758 272.02892 C 270.05755 272.02892 271.23878 272.47517 272.13127 273.36765 C 273.04126 274.26014 273.60206 275.73723 273.81206 277.80219 L 263.28434 277.80219 C 263.45934 276.13972 263.87223 274.88931 264.51971 274.04932 C 265.5347 272.70185 266.89011 272.02892 268.58758 272.02892 z M 215.1418 273.05266 C 216.61178 273.05266 217.84551 273.64683 218.84299 274.83681 C 219.84048 276.00928 220.33922 277.80383 220.33922 280.21879 C 220.33922 282.80875 219.84048 284.68915 218.84299 285.86163 C 217.86302 287.03411 216.60303 287.62117 215.06305 287.62117 C 213.54058 287.62117 212.27103 287.02454 211.25605 285.83456 C 210.25856 284.64458 209.75982 282.80711 209.75982 280.32215 C 209.75982 277.8722 210.26813 276.05386 211.28312 274.86388 C 212.2981 273.6564 213.58433 273.05266 215.1418 273.05266 z M 68.866055 280.26801 L 68.866055 282.00048 C 68.866055 284.08295 68.61313 285.65792 68.105638 286.7254 C 67.440649 288.10788 66.397775 289.20326 64.980298 290.00824 C 63.562822 290.79573 61.944917 291.18947 60.124947 291.18947 C 58.287477 291.18947 56.886679 290.76948 55.924195 289.92949 C 54.979211 289.08951 54.506718 288.03952 54.506718 286.77954 C 54.506718 285.95705 54.726285 285.21249 55.163778 284.54751 C 55.601271 283.86502 56.221691 283.3496 57.026677 282.9996 C 57.831664 282.64961 59.206213 282.33461 61.148681 282.05462 C 64.578625 281.56463 67.151084 280.968 68.866055 280.26801 z "
       transform="matrix(0.79366369,0,0,0.79366369,21.306403,11.366146)" />
  </g>
</svg>
