<?xml version="1.0" encoding="UTF-8" standalone="no"?>
<!-- Created with Inkscape (http://www.inkscape.org/) -->

<svg
   width="250"
   height="40"
   viewBox="0 0 250 40"
   version="1.1"   xmlns="http://www.w3.org/2000/svg"
   xmlns:svg="http://www.w3.org/2000/svg">

  <path
     id="path1"
     style="stroke-width:0.1886"
     d="M 16.271941,1.209 -6.994e-4,10.60503 V 29.39604 L 16.271941,38.791 C 21.696182,35.65884 27.121164,32.52776 32.54565,29.39604 V 10.60503 Z M 151.65647,4.68042 c -4.41594,0 -7.85753,1.2389 -10.32453,3.71824 -2.45467,2.467 -3.68298,5.93405 -3.68298,10.39932 0,4.60096 1.40695,8.17351 4.21935,10.71452 2.38064,2.14628 5.6298,3.2182 9.74969,3.2182 2.78773,0 5.10755,-0.40026 6.95781,-1.20202 0.4564,0.39471 1.25901,0.98158 2.40617,1.75868 1.14716,0.78944 2.306,1.46588 3.47784,2.03328 l 2.33137,-4.69909 c -0.8141,-0.35771 -1.46246,-0.67313 -1.94353,-0.94451 -0.3207,-0.18502 -1.00508,-0.64199 -2.05357,-1.36977 1.97361,-2.40532 2.96177,-5.60939 2.96177,-9.61827 0,-4.50228 -1.22832,-7.96243 -3.68298,-10.38009 -2.44234,-2.41765 -5.91413,-3.62849 -10.41641,-3.62849 z M 48.774484,4.71672 c -1.825584,0 -3.485418,0.30746 -4.977954,0.92421 -1.492542,0.61676 -2.62594,1.52381 -3.403044,2.7203 -0.777099,1.18418 -1.165689,2.46018 -1.165689,3.82936 0,1.24585 0.31436,2.37448 0.943449,3.38596 0.641425,0.99913 1.607823,1.83887 2.903006,2.51728 0.999133,0.53042 2.745913,1.09658 5.237588,1.70099 2.491671,0.59208 4.100608,1.02943 4.828372,1.31314 1.134814,0.43172 1.9491,0.96876 2.442497,1.61017 0.493401,0.62909 0.740445,1.36915 0.740445,2.22026 0,0.83879 -0.258696,1.61594 -0.776776,2.33138 -0.505731,0.70309 -1.282906,1.25867 -2.331379,1.66572 -1.048468,0.40707 -2.257153,0.6101 -3.626349,0.6101 -1.541875,0 -2.930284,-0.26452 -4.163787,-0.79494 -1.233504,-0.54274 -2.146389,-1.24567 -2.738462,-2.10914 -0.579752,-0.87579 -0.949781,-1.99277 -1.110131,-3.34962 l -3.385948,0.29704 c 0.04932,1.81325 0.543431,3.44178 1.480885,4.88499 0.949802,1.43087 2.250191,2.50384 3.903083,3.21927 1.665222,0.71542 3.725305,1.07167 6.179971,1.07167 1.936593,0 3.676485,-0.35148 5.218359,-1.05457 1.554212,-0.71542 2.745411,-1.70729 3.571857,-2.9778 0.826447,-1.28285 1.238344,-2.64579 1.238344,-4.089 0,-1.45553 -0.375852,-2.73843 -1.128293,-3.84859 -0.752431,-1.12248 -1.917109,-2.04809 -3.495998,-2.77586 -1.085481,-0.4934 -3.090971,-1.06646 -6.014359,-1.72022 -2.911059,-0.66609 -4.712445,-1.31443 -5.403201,-1.94353 -0.703097,-0.62908 -1.054569,-1.43169 -1.054569,-2.40616 0,-1.12248 0.494085,-2.07724 1.480884,-2.86669 0.99914,-0.80177 2.583682,-1.20201 4.754646,-1.20201 2.084616,0 3.65751,0.43736 4.718319,1.31313 1.073145,0.8758 1.701876,2.17037 1.8869,3.88493 l 3.441506,-0.25858 C 58.907016,11.22871 58.462732,9.80426 57.63629,8.54608 56.809854,7.2879 55.62661,6.33793 54.084729,5.6965 52.55519,5.04275 50.785091,4.71672 48.774484,4.71672 Z m 173.914246,0.42631 -7.54867,3.86676 v 3.60818 h -2.77585 v 5.4951 h 2.77585 v 6.91934 c 0,2.19564 0.20995,3.78707 0.62933,4.77388 0.43174,0.97448 1.09173,1.7018 1.97986,2.18286 0.88813,0.48106 2.27068,0.72228 4.14562,0.72228 1.61588,0 3.35471,-0.20411 5.21728,-0.61116 l -0.55452,-5.19806 c -0.99915,0.32071 -1.77631,0.48082 -2.33139,0.48082 -0.61675,0 -1.04935,-0.211 -1.29603,-0.6304 -0.16038,-0.27137 -0.24148,-0.82588 -0.24148,-1.66466 v -6.9749 h 4.14563 v -5.4951 h -4.14563 z M 64.261804,5.17933 v 27.12606 h 3.330394 V 21.55454 c 0,-1.54188 0.184482,-2.74949 0.55453,-3.62528 0.370058,-0.87578 0.986043,-1.56707 1.849503,-2.07281 0.875786,-0.51806 1.807223,-0.77784 2.794022,-0.77784 1.319848,0 2.337156,0.3817 3.05259,1.14645 0.727759,0.75245 1.091963,1.9622 1.091963,3.62742 v 12.45291 h 3.330389 V 19.85248 c 0,-1.92425 -0.234319,-3.39271 -0.703048,-4.40418 -0.456395,-1.01148 -1.2219,-1.80029 -2.295051,-2.3677 -1.073156,-0.57975 -2.336423,-0.86866 -3.791962,-0.86866 -2.368318,0 -4.328725,0.89908 -5.882936,2.69999 v -9.7326 z m 87.375436,5.84874 c 1.78857,0 3.18864,0.5858 4.20011,1.75762 1.02381,1.17184 1.53645,3.1264 1.53645,5.86479 0,2.38064 -0.33292,4.17038 -0.99902,5.36687 -0.33305,-0.20969 -0.64264,-0.4138 -0.92635,-0.61117 -1.19649,-0.83877 -2.00387,-1.35617 -2.42326,-1.55353 -0.40706,-0.19737 -0.98119,-0.36436 -1.72129,-0.50005 l -1.31314,3.0152 c 1.5172,0.60441 2.62729,1.24696 3.33039,1.92536 -0.50574,0.11103 -1.04168,0.16668 -1.6091,0.16668 -1.7639,0 -3.15125,-0.59851 -4.16273,-1.79501 -1.01145,-1.1965 -1.51827,-3.2762 -1.51827,-6.23659 0,-2.54102 0.51845,-4.40973 1.5546,-5.60622 1.03615,-1.1965 2.38638,-1.79395 4.05161,-1.79395 z m -38.25514,0.89752 c -0.45026,-0.026 -1.4126,0.61895 -1.90293,0.952 -0.64141,0.44406 -1.34436,1.36276 -2.10913,2.75662 V 12.65534 H 106.373 v 19.65005 h 3.33039 v -10.2882 c 0,-1.4062 0.18447,-2.70182 0.55454,-3.88599 0.2467,-0.7771 0.66074,-1.38038 1.24048,-1.81211 0.57975,-0.44406 1.23178,-0.66565 1.95955,-0.66565 0.81411,0 1.62838,0.24014 2.44251,0.72121 l 1.14858,-3.09105 c -1.15947,-0.71543 -3.42441,0.0508 -3.42441,-1.07166 0,-0.19428 -0.0924,-0.27768 -0.24254,-0.28635 z m 87.49189,0.24895 c -3.44146,0 -6.17321,0.97436 -8.19615,2.92331 -2.02293,1.93658 -3.0355,4.4038 -3.0355,7.40121 0,3.21945 1.19812,5.82237 3.5911,7.8083 1.94895,1.60355 4.50201,2.40512 7.65978,2.40512 3.54015,0 6.30901,-0.96165 8.30728,-2.88592 2.0106,-1.9366 3.01626,-4.41545 3.01626,-7.43755 0,-2.68903 -0.80847,-4.95322 -2.42434,-6.79113 -2.01062,-2.28199 -4.98356,-3.42334 -8.91843,-3.42334 z m 37.46981,0 c -3.46613,0 -6.18623,0.95106 -8.15982,2.85065 -1.96127,1.89959 -2.94147,4.38429 -2.94147,7.45571 0,2.15862 0.48614,4.04005 1.46058,5.64361 0.98681,1.59121 2.22572,2.75698 3.71824,3.49707 1.49254,0.72776 3.54203,1.0909 6.14471,1.0909 2.99743,0 5.29656,-0.42464 6.90012,-1.27575 1.60355,-0.86345 2.97234,-2.28207 4.10715,-4.25567 l -7.41832,-0.68489 c -0.46874,0.59207 -0.90607,1.00611 -1.31313,1.24048 -0.6661,0.37004 -1.36902,0.55454 -2.10914,0.55454 -1.17179,0 -2.1229,-0.4257 -2.85065,-1.27682 -0.51806,-0.59208 -0.84409,-1.49331 -0.97978,-2.70213 h 15.09841 v -0.8505 c 0,-2.59034 -0.42569,-4.69444 -1.27681,-6.31032 -0.85111,-1.61589 -2.09109,-2.84895 -3.71931,-3.70007 -1.62822,-0.85111 -3.84837,-1.27681 -6.66078,-1.27681 z m -216.342779,0.0246 c 1.31943,0 2.553097,0.32354 3.637037,0.96803 1.087658,0.64085 1.937298,1.56825 2.500195,2.71922 0.564518,1.13659 0.840879,2.41577 0.840879,3.79945 0,1.14298 -0.173776,2.20031 -0.536367,3.15623 h -0.0011 v 0.001 c -0.230511,0.60351 -0.565768,1.1455 -0.947724,1.65504 0.405169,0.23257 0.841634,0.51974 1.18599,0.64962 l 0.81844,0.30879 -1.150731,2.72457 -0.750059,-0.27138 c -0.879536,-0.3173 -1.73809,-0.81501 -2.583535,-1.42747 -0.946608,0.43333 -1.961027,0.69771 -3.047247,0.69771 -1.298253,0 -2.517577,-0.32036 -3.594298,-0.95841 -1.081041,-0.64062 -1.933025,-1.56495 -2.513017,-2.71176 v -10e-4 l -0.0021,-0.002 c -0.571285,-1.14257 -0.851563,-2.42742 -0.851563,-3.81333 0,-1.38187 0.284573,-2.6727 0.859042,-3.83471 0.579377,-1.1719 1.436219,-2.10697 2.526907,-2.73311 h 0.0011 l 0.0011,-10e-4 c 1.081871,-0.61727 2.302716,-0.9253 3.607119,-0.9253 z m -13.0779456,0.01 c 1.042505,0 1.9967516,0.16982 2.8431716,0.53102 0.859376,0.35845 1.572424,0.92189 2.058921,1.66252 0.47564,0.72412 0.733703,1.56361 0.768223,2.45426 l 0.03205,0.81096 -3.252391,0.24467 -0.08761,-0.80988 c -0.07068,-0.65495 -0.270362,-1.01915 -0.588721,-1.27895 l -0.0021,-0.002 -0.0021,-10e-4 c -0.293878,-0.24262 -0.8290826,-0.42952 -1.6988506,-0.42952 -0.924926,0 -1.485316,0.191 -1.726631,0.38465 l -0.0011,0.001 c -0.315584,0.25247 -0.385715,0.41572 -0.385715,0.70092 0,0.25927 0.04684,0.35879 0.219035,0.51286 l 0.0032,0.002 0.0032,0.003 c 0.0015,10e-4 0.842404,0.41472 2.175383,0.72014 l 0.0043,0.001 c 1.4042896,0.31416 2.3647776,0.57647 3.0098506,0.86973 l 0.0021,0.001 0.0021,10e-4 c 0.850446,0.392 1.541073,0.92089 2.002293,1.60803 0.451617,0.66701 0.678472,1.46003 0.678472,2.29398 0,0.84436 -0.25186,1.66481 -0.72121,2.39334 l -0.0011,10e-4 -0.0011,0.002 c -0.483648,0.74353 -1.18829,1.32265 -2.045032,1.71701 h -0.0011 -0.0021 c -0.851501,0.38829 -1.801405,0.57698 -2.8207336,0.57698 -1.244686,0 -2.333159,-0.17884 -3.259871,-0.57698 l -0.0011,-0.001 h -0.0011 c -0.916838,-0.39685 -1.678422,-1.02096 -2.217054,-1.83241 l -0.0021,-0.004 -0.0021,-0.003 C 3.3762934,23.95038 3.0950023,23.01216 3.0678516,22.01433 l -0.022437,-0.7928 3.2075158,-0.27994 0.09509,0.81096 c 0.06414,0.54275 0.207802,0.93509 0.389989,1.2127 0.172399,0.24961 0.459747,0.48857 0.932765,0.69771 0.467176,0.20065 1.004571,0.30985 1.637948,0.30985 0.565279,0 1.0320516,-0.0848 1.4135726,-0.23292 0.386898,-0.15021 0.601905,-0.32397 0.725484,-0.49577 l 0.0011,-10e-4 v -0.001 c 0.153816,-0.21242 0.209418,-0.38702 0.209418,-0.61115 0,-0.24061 -0.052,-0.37907 -0.172022,-0.5321 l -0.0021,-0.003 -0.0032,-0.003 c -0.09928,-0.12907 -0.342454,-0.31966 -0.788522,-0.48936 l -0.0032,-0.001 -0.0032,-10e-4 C 10.459487,21.51321 9.6785794,21.29163 8.5096014,21.01386 h -0.0021 l -0.0021,-0.001 c -1.209831,-0.29347 -2.064212,-0.55548 -2.676492,-0.88041 h -0.0011 c -0.711445,-0.37344 -1.293838,-0.86498 -1.689235,-1.48088 l -0.0032,-0.005 -0.0032,-0.004 c -0.37987,-0.61078 -0.573762,-1.31744 -0.573762,-2.0493 0,-0.8063 0.24001,-1.58713 0.688088,-2.27156 l 0.0011,-10e-4 c 0.466228,-0.71736 1.159282,-1.26231 1.995883,-1.60803 0.819027,-0.33843 1.720039,-0.50217 2.679696,-0.50217 z m 84.7192336,0.003 c -0.50661,0 -0.34122,0.0239 0.0417,0.0598 0.33066,-0.0366 0.43075,-0.0598 -0.0417,-0.0598 z m 0.0417,0.0598 c -0.852128,0.0942 -3.575054,0.30444 -4.499282,0.64215 -1.282841,0.45638 -2.264108,1.11426 -2.94254,1.97771 -0.67842,0.85111 -1.165613,1.97607 -1.461649,3.36993 l 3.255595,0.44447 c 0.357706,-1.39386 0.90747,-2.36453 1.647565,-2.90728 0.752447,-0.55506 1.911283,-0.83125 3.477836,-0.83125 1.677575,0 2.942995,0.37692 3.794095,1.12935 0.62911,0.55508 0.94346,1.51089 0.94346,2.86775 0,0.12335 -0.007,0.41012 -0.0192,0.86652 -1.27051,0.44407 -3.25053,0.83003 -5.939574,1.15073 -1.319838,0.16036 -2.306948,0.32628 -2.960702,0.49897 -0.888127,0.2467 -1.688605,0.61089 -2.404033,1.09197 -0.703098,0.48105 -1.277228,1.11932 -1.721292,1.92109 -0.431727,0.78944 -0.648551,1.6684 -0.648551,2.63054 0,1.64056 0.581029,2.99078 1.74052,4.05161 1.159492,1.04848 2.817194,1.57277 4.975815,1.57277 1.307513,0 2.528927,-0.21789 3.663747,-0.64963 1.14714,-0.43172 2.33837,-1.17178 3.57186,-2.22025 0.0987,0.92512 0.32028,1.7357 0.66565,2.42647 h 3.477841 c -0.41939,-0.75244 -0.7014,-1.53649 -0.84942,-2.35061 -0.13569,-0.82645 -0.20515,-2.78898 -0.20515,-5.88508 v -4.44052 c 0,-1.4802 -0.0556,-2.50547 -0.16669,-3.07289 -0.19736,-0.91279 -0.54192,-1.66236 -1.03533,-2.25445 -0.493391,-0.60442 -1.263671,-1.10433 -2.312141,-1.49905 -0.73186,-0.27553 -3.16341,-0.44799 -4.0484,-0.53102 z m 33.411801,-0.0598 c -2.71371,0 -4.92222,0.90968 -6.62445,2.73526 -1.70223,1.82557 -2.55361,4.39352 -2.55361,7.69931 0,3.19476 0.83972,5.67735 2.51728,7.45358 1.6899,1.7639 3.97049,2.64871 6.84456,2.64871 2.28196,0 4.15756,-0.55452 5.62544,-1.66466 1.46787,-1.11016 2.47352,-2.67139 3.01626,-4.68199 l -3.44151,-0.42525 c -0.50574,1.40619 -1.19015,2.42719 -2.05358,3.06862 -0.86346,0.64141 -1.9062,0.96268 -3.12738,0.96268 -1.64056,0 -3.00934,-0.57305 -4.10716,-1.72022 -1.09782,-1.14715 -1.70905,-2.80115 -1.83241,-4.95979 h 14.65393 c 0.0123,-0.39472 0.0192,-0.69053 0.0192,-0.88789 0,-3.2441 -0.83177,-5.76008 -2.49699,-7.54867 -1.66522,-1.78856 -3.81226,-2.67969 -6.43961,-2.67969 z m 40.36107,0.40708 v 12.50845 c 0,2.57804 0.58685,4.48859 1.75869,5.73443 1.18415,1.2335 2.81269,1.8495 4.88499,1.8495 1.5542,0 2.8615,-0.27832 3.92231,-0.8334 1.07315,-0.55506 2.13447,-1.48437 3.18294,-2.79188 v 3.1808 h 7.03047 v -19.6479 h -7.5305 v 9.45587 c 0,1.78858 -0.29104,3.02748 -0.8708,3.71824 -0.56741,0.69076 -1.30057,1.0364 -2.20103,1.0364 -0.82644,0 -1.46684,-0.25978 -1.92322,-0.77784 -0.4564,-0.51807 -0.68595,-1.39385 -0.68595,-2.62734 V 12.61922 Z m -40.32474,2.32818 c 1.6899,0 3.06664,0.64358 4.12746,1.92643 0.69075,0.82643 1.10956,2.06641 1.25758,3.7193 h -10.97201 c 0.11101,-1.71457 0.68513,-3.08335 1.72128,-4.10715 1.04847,-1.02381 2.33615,-1.53858 3.86569,-1.53858 z m -105.122541,0.39853 0.0011,0.001 c -1.075517,0 -1.859844,0.32977 -2.548276,1.04708 l -0.0011,10e-4 h -0.0021 c -0.641534,0.66398 -1.016105,1.71037 -1.016105,3.29834 0,1.5325 0.365368,2.57607 1.011831,3.27803 h 0.0011 c 0.472572,0.5083 1.038421,0.76339 1.676413,0.91034 l 0.52675,-1.57919 0.253225,-0.75968 0.771428,0.21583 c 0.77322,0.21632 1.438388,0.54731 2.0461,0.9349 0.521617,-0.70386 0.813099,-1.65989 0.813099,-3.00771 0,-0.94407 -0.161197,-1.72832 -0.45837,-2.37625 l -0.0011,-0.003 -0.0011,-0.002 c -0.290049,-0.64294 -0.685979,-1.09777 -1.229797,-1.43707 l -0.0032,-0.002 -0.0043,-0.003 c -0.543862,-0.34694 -1.131408,-0.51606 -1.835614,-0.51606 z m 216.648351,1.28856 c 1.03616,0 1.86898,0.31544 2.49807,0.94451 0.64143,0.62908 1.03691,1.66973 1.18492,3.12525 h -7.42152 c 0.12336,-1.17182 0.4144,-2.05449 0.8708,-2.64658 0.71542,-0.94977 1.67124,-1.42318 2.86773,-1.42318 z m -37.67281,0.72228 c 1.03615,0 1.90609,0.41878 2.60918,1.25758 0.70309,0.82642 1.05456,2.0908 1.05456,3.79303 0,1.82559 -0.35147,3.15142 -1.05456,3.97787 -0.69076,0.82645 -1.57927,1.24049 -2.66474,1.24049 -1.07315,0 -1.96746,-0.42094 -2.6829,-1.25972 -0.7031,-0.83877 -1.05458,-2.13335 -1.05458,-3.88492 0,-1.7269 0.35835,-3.00873 1.07382,-3.84752 0.7154,-0.8511 1.6214,-1.27681 2.71922,-1.27681 z M 97.879859,22.4405 v 1.22125 c 0,1.46787 -0.17866,2.57795 -0.53638,3.33039 -0.46873,0.97446 -1.20296,1.74795 -2.20209,2.31535 -0.99914,0.55507 -2.140502,0.83339 -3.423343,0.83339 -1.295178,0 -2.282282,-0.29581 -2.960703,-0.88788 -0.666095,-0.59209 -0.999009,-1.33215 -0.999009,-2.22027 0,-0.57975 0.15533,-1.1051 0.463709,-1.57383 0.308367,-0.48107 0.745724,-0.8442 1.313136,-1.0909 0.567407,-0.2467 1.535956,-0.46936 2.905144,-0.66671 2.417676,-0.34539 4.230696,-0.76739 5.439536,-1.26079 z" />
</svg>
